<?xml version="1.0" standalone="no"?>
<!DOCTYPE svg PUBLIC "-//W3C//DTD SVG 20010904//EN"
 "http://www.w3.org/TR/2001/REC-SVG-20010904/DTD/svg10.dtd">
<svg version="1.0" xmlns="http://www.w3.org/2000/svg"
 width="1024.000000pt" height="1024.000000pt" viewBox="0 0 1024.000000 1024.000000"
 preserveAspectRatio="xMidYMid meet">

<g transform="translate(0.000000,1024.000000) scale(0.100000,-0.100000)"
fill="#000000" stroke="none">
<path d="M3383 8399 c-510 -59 -997 -356 -1285 -784 -152 -226 -247 -485 -295
-810 -15 -104 -18 -194 -18 -685 0 -589 4 -674 46 -865 48 -224 153 -464 279
-640 80 -112 278 -311 387 -388 112 -80 240 -150 351 -193 l92 -36 0 -887 c0
-971 0 -961 60 -1089 61 -130 215 -251 358 -281 38 -8 694 -11 2285 -11 2461
0 2295 -4 2421 63 78 41 162 125 203 203 68 127 63 -61 63 2494 0 2524 3 2388
-56 2508 -36 73 -125 162 -202 201 -128 65 26 61 -2327 60 -1177 -1 -2175 -5
-2218 -9 -159 -17 -302 -84 -408 -189 -71 -72 -115 -141 -151 -241 l-23 -65
-2 -1024 c-2 -563 -5 -1026 -7 -1028 -2 -2 -37 19 -78 46 -220 147 -374 411
-423 726 -14 85 -15 190 -12 695 4 637 3 630 58 799 111 345 412 639 757 741
191 56 119 53 1442 59 1160 6 1228 7 1275 25 166 61 286 191 330 357 8 30 15
100 15 157 l0 102 -1422 -1 c-783 -1 -1455 -5 -1495 -10z m1317 -2319 l0 -590
-585 0 -585 0 0 543 c0 526 1 543 20 575 38 62 31 61 618 62 l532 0 0 -590z
m3025 560 c59 -55 55 102 55 -2159 l0 -2079 -27 -33 c-53 -63 68 -59 -1798
-59 l-1705 0 0 683 c0 740 2 762 55 867 57 113 195 212 334 241 85 18 290 6
371 -21 240 -79 396 -213 586 -502 176 -268 277 -391 412 -502 164 -134 326
-201 553 -231 41 -5 49 -10 60 -37 20 -49 83 -122 135 -157 137 -90 336 -94
472 -7 60 38 131 121 165 194 30 64 32 73 32 187 0 101 -3 129 -22 175 -47
114 -142 205 -262 251 -73 28 -213 30 -286 4 -70 -24 -158 -87 -192 -136 -62
-89 -51 -83 -127 -69 -133 25 -265 110 -379 245 -33 39 -101 133 -152 210 -51
77 -107 159 -125 182 l-31 42 28 7 c113 25 146 39 298 130 148 88 289 134 410
134 39 0 46 -4 64 -34 33 -52 97 -105 170 -140 62 -29 73 -31 176 -31 109 0
113 1 190 39 135 67 213 168 240 311 70 363 -300 657 -624 498 -69 -33 -141
-104 -175 -170 l-25 -50 -93 -7 c-199 -14 -339 -66 -544 -203 -145 -96 -208
-118 -339 -116 -59 1 -109 8 -144 21 l-55 18 55 37 c198 131 347 316 507 630
50 98 117 214 149 259 120 167 276 274 450 308 l62 12 33 -38 c83 -94 228
-152 357 -141 216 18 377 181 398 403 22 233 -142 449 -367 484 -121 18 -246
-17 -337 -94 -44 -39 -98 -116 -108 -157 -6 -24 -12 -27 -73 -32 -214 -20
-427 -131 -617 -322 -128 -127 -218 -262 -342 -509 -110 -220 -151 -285 -242
-379 -142 -148 -309 -225 -536 -248 -55 -5 -144 -14 -197 -19 -124 -12 -272
-61 -378 -126 -163 -98 -307 -263 -365 -418 -53 -140 -55 -179 -55 -959 l0
-720 -100 6 c-114 7 -150 22 -174 71 -15 31 -16 151 -16 1325 l0 1290 738 3
737 3 54 30 c57 32 90 67 118 131 17 36 18 94 21 772 l3 732 1249 -2 1248 -3
27 -25z"/>
</g>
</svg>
